<svg xmlns="http://www.w3.org/2000/svg" version="1.1" xmlns:xlink="http://www.w3.org/1999/xlink" xmlns:svgjs="http://svgjs.dev/svgjs" width="1500" height="1500" viewBox="0 0 1500 1500"><rect width="1500" height="1500" fill="#000000"></rect><g transform="matrix(0.6666666666666666,0,0,0.6666666666666666,249.39393939393938,667.5238256240295)"><svg viewBox="0 0 396 65" data-background-color="#8c1010" preserveAspectRatio="xMidYMid meet" height="246" width="1500" xmlns="http://www.w3.org/2000/svg" xmlns:xlink="http://www.w3.org/1999/xlink"><g id="tight-bounds" transform="matrix(1,0,0,1,0.2400000000000091,0.1887276490126908)"><svg viewBox="0 0 395.52 64.6225447019746" height="64.6225447019746" width="395.52"><g><svg viewBox="0 0 528.3476703498786 86.3247647283808" height="64.6225447019746" width="395.52"><g><rect width="5.633036447440362" height="62.77596856152148" x="112.44846519186142" y="11.77439808342966" fill="#ffffff" opacity="1" stroke-width="0" stroke="transparent" fill-opacity="1" class="rect-qz-0" data-fill-palette-color="primary" rx="1%" id="qz-0" data-palette-color="#e8c2d3"></rect></g><g transform="matrix(1,0,0,1,132.82767034987864,11.930557209204586)"><svg viewBox="0 0 395.52 62.46365030997163" height="62.46365030997163" width="395.52"><g id="textblocktransform"><svg viewBox="0 0 395.52 62.46365030997163" height="62.46365030997163" width="395.52" id="textblock"><g><svg viewBox="0 0 395.52 62.46365030997163" height="62.46365030997163" width="395.52"><g transform="matrix(1,0,0,1,0,0)"><svg width="395.52" viewBox="3.98 -35.99 236.19 36.7" height="62.46365030997163" data-palette-color="#e8c2d3"><g class="wordmark-text-0" data-fill-palette-color="primary" id="text-0"><path d="M13.67-13.13L13.67 0 3.98 0 3.98-35.16 21.26-35.16Q23.71-35.16 25.98-34.58 28.25-34.01 29.99-32.78 31.74-31.54 32.78-29.59 33.81-27.64 33.81-24.85L33.81-24.85Q33.81-22.68 32.9-20.76 31.98-18.85 30.46-17.35 28.93-15.84 26.95-14.86 24.98-13.87 22.85-13.55L22.85-13.55Q23.8-11.94 24.84-10.5 25.88-9.06 26.94-7.8 28-6.54 29.05-5.48 30.1-4.42 31.05-3.54L31.05-3.54Q33.3-1.49 35.5 0L35.5 0 23.41 0Q21.95-1.39 20.63-3.34L20.63-3.34Q19.51-5 18.37-7.46 17.24-9.91 16.63-13.13L16.63-13.13 13.67-13.13ZM23.97-24.85L23.97-24.85Q23.97-28.39 22.25-30.05 20.53-31.71 17.09-31.71L17.09-31.71 13.67-31.71 13.67-16.46 17.09-16.46Q18.92-16.46 20.23-17.15 21.53-17.85 22.36-19.01 23.19-20.17 23.58-21.68 23.97-23.19 23.97-24.85ZM65.31-4.49L65.31 0 40.06 0 40.06-35.16 65.31-35.16 65.31-30.66 49.75-30.66 49.75-19.8 61.77-19.8 61.77-15.33 49.75-15.33 49.75-4.49 65.31-4.49ZM101.97-35.16L89.52 0 80.66 0 67.52-35.16 77.41-35.16 87.15-6.86 95.97-35.16 101.97-35.16ZM142.89-17.63L142.89-17.63Q142.89-13.38 141.42-9.97 139.96-6.57 137.37-4.2 134.78-1.83 131.24-0.56 127.7 0.71 123.58 0.71L123.58 0.71Q119.45 0.71 115.91-0.56 112.37-1.83 109.78-4.2 107.19-6.57 105.73-9.97 104.26-13.38 104.26-17.63L104.26-17.63Q104.26-21.95 105.72-25.35 107.17-28.76 109.75-31.12 112.32-33.47 115.86-34.73 119.4-35.99 123.58-35.99L123.58-35.99Q127.75-35.99 131.29-34.73 134.83-33.47 137.41-31.12 139.98-28.76 141.44-25.35 142.89-21.95 142.89-17.63ZM133.02-17.63L133.02-17.63Q133.02-19.24 132.88-20.92 132.73-22.61 132.34-24.19 131.95-25.78 131.28-27.17 130.61-28.56 129.56-29.6 128.51-30.64 127.03-31.24 125.55-31.84 123.58-31.84L123.58-31.84Q121.57-31.84 120.09-31.24 118.6-30.64 117.55-29.61 116.5-28.59 115.84-27.2 115.18-25.81 114.8-24.23 114.42-22.66 114.27-20.96 114.13-19.26 114.13-17.63L114.13-17.63Q114.13-16.02 114.27-14.33 114.42-12.65 114.81-11.07 115.2-9.5 115.87-8.11 116.55-6.71 117.6-5.68 118.64-4.64 120.12-4.03 121.6-3.42 123.58-3.42L123.58-3.42Q125.51-3.42 126.95-4.04 128.39-4.66 129.44-5.73 130.49-6.79 131.18-8.19 131.88-9.59 132.28-11.17 132.68-12.74 132.85-14.4 133.02-16.06 133.02-17.63ZM174.16-4.47L174.16 0 148.92 0 148.92-35.16 158.61-35.16 158.61-4.47 174.16-4.47ZM194.98-30.66L194.98 0 185.29 0 185.29-30.66 175.72-30.66 175.72-35.16 204.55-35.16 204.55-30.66 194.98-30.66ZM240.17-35.16L227.72 0 218.86 0 205.72-35.16 215.61-35.16 225.35-6.86 234.16-35.16 240.17-35.16Z" fill="#ffffff" data-fill-palette-color="primary"></path></g></svg></g></svg></g></svg></g></svg></g><g><svg viewBox="0 0 97.70229648128455 86.3247647283808" height="86.3247647283808" width="97.70229648128455"><g><svg xmlns="http://www.w3.org/2000/svg" xmlns:xlink="http://www.w3.org/1999/xlink" version="1.1" x="0" y="0" viewBox="1.4 7.800000000000006 108.2 95.6" style="enable-background:new 0 0 110 110;" xml:space="preserve" height="86.3247647283808" width="97.70229648128455" class="icon-icon-0" data-fill-palette-color="accent" id="icon-0"><path d="M89.9 53.2v-3c0-1.2-1-2.2-2.2-2.2h-7.3c-1.2 0-2.2 1-2.2 2.2v2.4H60.4c-0.6-2.2-2.6-3.8-5-3.8l0 0c-0.7-0.6-1.5-1.3-2.2-2.1-3.1-3.5-4.1-7-3-10.5 1.7-5.1 7.2-6.1 13-7.2 5.5-1 11.1-2.1 14.2-6.6 2.3-3.4 2.7-8.2 1.3-14.6l-3.1 0.6c1.2 5.6 0.9 9.6-0.9 12.2-2.3 3.5-7.1 4.4-12.2 5.3-6.2 1.1-13.1 2.4-15.4 9.3C45 41.6 48.5 46.8 51.9 50c-0.8 0.7-1.4 1.5-1.7 2.5H32.7v-2.4c0-1.2-1-2.2-2.2-2.2h-7.3c-1.2 0-2.2 1-2.2 2.2v3C9.7 55.8 1.4 65.9 1.4 77.9c0 14.1 11.4 25.5 25.5 25.5 6.1 0 11.7-2.2 16.1-5.8 3.4-2.8 7.8-4.5 12.5-4.5s9 1.7 12.4 4.4l0 0c4.4 3.6 10 5.8 16.2 5.8 14.1 0 25.5-11.4 25.5-25.5C109.5 65.9 101.1 55.8 89.9 53.2zM23.2 67.9c0-0.8 0.6-1.4 1.4-1.4h4.6c0.8 0 1.4 0.6 1.4 1.4v3.9c0 0.3-0.1 0.5-0.2 0.7-0.1 0.1-0.1 0.2-0.2 0.3l-2.3 2.3c-0.5 0.5-1.4 0.5-2 0l-2.3-2.3c-0.2-0.2-0.4-0.5-0.4-0.8v-0.1l0 0 0 0V67.9zM20.9 81.6h-0.1l0 0 0 0h-3.9c-0.8 0-1.4-0.6-1.4-1.4v-4.6c0-0.8 0.6-1.4 1.4-1.4h3.9c0.3 0 0.5 0.1 0.7 0.2 0.1 0.1 0.2 0.1 0.3 0.2l2.3 2.3c0.5 0.5 0.5 1.4 0 2l-2.3 2.3C21.5 81.4 21.2 81.5 20.9 81.6zM30.5 87.9c0 0.8-0.6 1.4-1.4 1.4h-4.6c-0.8 0-1.4-0.6-1.4-1.4V84c0-0.3 0.1-0.5 0.2-0.7 0.1-0.1 0.1-0.2 0.2-0.3l2.3-2.3c0.5-0.5 1.4-0.5 2 0l2.3 2.3c0.2 0.2 0.4 0.5 0.4 0.8v0.1l0 0 0 0V87.9zM38.2 80.2c0 0.8-0.6 1.4-1.4 1.4H33c-0.3 0-0.5-0.1-0.7-0.2-0.1-0.1-0.2-0.1-0.3-0.2l-2.3-2.3c-0.5-0.5-0.5-1.4 0-2l2.3-2.3c0.2-0.2 0.5-0.4 0.8-0.4h0.1l0 0 0 0h3.9c0.8 0 1.4 0.6 1.4 1.4V80.2zM52.1 80.3c-0.2 0.4-0.8 0.6-1.2 0.3L49.8 80c-0.4-0.2-0.6-0.8-0.3-1.2l5.4-9.2c0.2-0.4 0.8-0.6 1.2-0.3l1.1 0.6c0.4 0.2 0.6 0.8 0.3 1.2L52.1 80.3zM64.9 71.2l-5.4 9.2c-0.2 0.4-0.8 0.6-1.2 0.3L57.2 80c-0.4-0.2-0.6-0.8-0.3-1.2l5.4-9.2c0.2-0.4 0.8-0.6 1.2-0.3l1.1 0.6C65 70.2 65.1 70.7 64.9 71.2zM75.7 80.9c-1.6 0-3-1.3-3-3 0-1.6 1.3-3 3-3 1.6 0 3 1.3 3 3S77.4 80.9 75.7 80.9zM84.2 89.3c-1.6 0-3-1.3-3-3 0-1.6 1.3-3 3-3 1.6 0 3 1.3 3 3C87.1 88 85.8 89.3 84.2 89.3zM84.2 72.5c-1.6 0-3-1.3-3-3s1.3-3 3-3c1.6 0 3 1.3 3 3S85.8 72.5 84.2 72.5zM92.6 80.9c-1.6 0-3-1.3-3-3 0-1.6 1.3-3 3-3 1.6 0 3 1.3 3 3S94.2 80.9 92.6 80.9z" fill="#ffffff" data-fill-palette-color="accent"></path></svg></g></svg></g></svg></g><defs></defs></svg><rect width="395.52" height="64.6225447019746" fill="none" stroke="none" visibility="hidden"></rect></g></svg></g></svg>